<mxfile host="app.diagrams.net" agent="Mozilla/5.0 (Windows NT 10.0; Win64; x64) AppleWebKit/537.36 (KHTML, like Gecko) Chrome/130.0.0.0 Safari/537.36" version="24.8.4">
  <diagram name="Page-1" id="1QrzyosHLY6H9AkxcwBx">
    <mxGraphModel dx="1518" dy="614" grid="1" gridSize="10" guides="1" tooltips="1" connect="1" arrows="1" fold="1" page="1" pageScale="1" pageWidth="850" pageHeight="1100" math="0" shadow="0">
      <root>
        <mxCell id="0" />
        <mxCell id="1" parent="0" />
        <mxCell id="BO9AZAVn0g_Hce8t9gI5-1" value="AWS Cloud" style="sketch=0;outlineConnect=0;gradientColor=none;html=1;whiteSpace=wrap;fontSize=12;fontStyle=0;shape=mxgraph.aws4.group;grIcon=mxgraph.aws4.group_aws_cloud;strokeColor=#AAB7B8;fillColor=none;verticalAlign=top;align=left;spacingLeft=30;fontColor=#AAB7B8;dashed=0;" parent="1" vertex="1">
          <mxGeometry x="210" y="120" width="870" height="790" as="geometry" />
        </mxCell>
        <mxCell id="BO9AZAVn0g_Hce8t9gI5-2" value="Route53" style="sketch=0;points=[[0,0,0],[0.25,0,0],[0.5,0,0],[0.75,0,0],[1,0,0],[0,1,0],[0.25,1,0],[0.5,1,0],[0.75,1,0],[1,1,0],[0,0.25,0],[0,0.5,0],[0,0.75,0],[1,0.25,0],[1,0.5,0],[1,0.75,0]];outlineConnect=0;fontColor=#232F3E;fillColor=#8C4FFF;strokeColor=#ffffff;dashed=0;verticalLabelPosition=bottom;verticalAlign=top;align=center;html=1;fontSize=12;fontStyle=0;aspect=fixed;shape=mxgraph.aws4.resourceIcon;resIcon=mxgraph.aws4.route_53;" parent="1" vertex="1">
          <mxGeometry x="612" y="140" width="48" height="48" as="geometry" />
        </mxCell>
        <mxCell id="BO9AZAVn0g_Hce8t9gI5-25" value="us-gov-east-1" style="points=[[0,0],[0.25,0],[0.5,0],[0.75,0],[1,0],[1,0.25],[1,0.5],[1,0.75],[1,1],[0.75,1],[0.5,1],[0.25,1],[0,1],[0,0.75],[0,0.5],[0,0.25]];outlineConnect=0;gradientColor=none;html=1;whiteSpace=wrap;fontSize=12;fontStyle=0;container=1;pointerEvents=0;collapsible=0;recursiveResize=0;shape=mxgraph.aws4.group;grIcon=mxgraph.aws4.group_region;strokeColor=#00A4A6;fillColor=none;verticalAlign=top;align=left;spacingLeft=30;fontColor=#147EBA;dashed=1;" parent="1" vertex="1">
          <mxGeometry x="710" y="200" width="350" height="690" as="geometry" />
        </mxCell>
        <mxCell id="BO9AZAVn0g_Hce8t9gI5-27" value="AWS S3 Bucket" style="outlineConnect=0;dashed=0;verticalLabelPosition=bottom;verticalAlign=top;align=center;html=1;shape=mxgraph.aws3.s3;fillColor=#E05243;gradientColor=none;" parent="BO9AZAVn0g_Hce8t9gI5-25" vertex="1">
          <mxGeometry x="150.25" y="580" width="60" height="73" as="geometry" />
        </mxCell>
        <mxCell id="wtEGEeKgVB4r8HaXVltj-11" value="VPC" style="sketch=0;outlineConnect=0;gradientColor=none;html=1;whiteSpace=wrap;fontSize=12;fontStyle=0;shape=mxgraph.aws4.group;grIcon=mxgraph.aws4.group_vpc;strokeColor=#879196;fillColor=none;verticalAlign=top;align=left;spacingLeft=30;fontColor=#879196;dashed=0;" vertex="1" parent="BO9AZAVn0g_Hce8t9gI5-25">
          <mxGeometry x="30" y="50" width="290" height="360" as="geometry" />
        </mxCell>
        <mxCell id="wtEGEeKgVB4r8HaXVltj-12" value="Private subnet" style="points=[[0,0],[0.25,0],[0.5,0],[0.75,0],[1,0],[1,0.25],[1,0.5],[1,0.75],[1,1],[0.75,1],[0.5,1],[0.25,1],[0,1],[0,0.75],[0,0.5],[0,0.25]];outlineConnect=0;gradientColor=none;html=1;whiteSpace=wrap;fontSize=12;fontStyle=0;container=1;pointerEvents=0;collapsible=0;recursiveResize=0;shape=mxgraph.aws4.group;grIcon=mxgraph.aws4.group_security_group;grStroke=0;strokeColor=#00A4A6;fillColor=#E6F6F7;verticalAlign=top;align=left;spacingLeft=30;fontColor=#147EBA;dashed=0;" vertex="1" parent="BO9AZAVn0g_Hce8t9gI5-25">
          <mxGeometry x="90" y="260" width="180" height="140" as="geometry" />
        </mxCell>
        <mxCell id="wtEGEeKgVB4r8HaXVltj-17" value="" style="endArrow=classic;html=1;rounded=0;" edge="1" parent="wtEGEeKgVB4r8HaXVltj-12">
          <mxGeometry width="50" height="50" relative="1" as="geometry">
            <mxPoint x="89.33000000000007" y="140" as="sourcePoint" />
            <mxPoint x="89" y="190" as="targetPoint" />
          </mxGeometry>
        </mxCell>
        <mxCell id="wtEGEeKgVB4r8HaXVltj-28" value="" style="endArrow=none;dashed=1;html=1;rounded=0;entryX=0.31;entryY=0.691;entryDx=0;entryDy=0;entryPerimeter=0;" edge="1" parent="wtEGEeKgVB4r8HaXVltj-12">
          <mxGeometry width="50" height="50" relative="1" as="geometry">
            <mxPoint x="160" y="290" as="sourcePoint" />
            <mxPoint x="160" y="170" as="targetPoint" />
          </mxGeometry>
        </mxCell>
        <mxCell id="wtEGEeKgVB4r8HaXVltj-15" value="Public subnet" style="points=[[0,0],[0.25,0],[0.5,0],[0.75,0],[1,0],[1,0.25],[1,0.5],[1,0.75],[1,1],[0.75,1],[0.5,1],[0.25,1],[0,1],[0,0.75],[0,0.5],[0,0.25]];outlineConnect=0;gradientColor=none;html=1;whiteSpace=wrap;fontSize=12;fontStyle=0;container=1;pointerEvents=0;collapsible=0;recursiveResize=0;shape=mxgraph.aws4.group;grIcon=mxgraph.aws4.group_security_group;grStroke=0;strokeColor=#7AA116;fillColor=#F2F6E8;verticalAlign=top;align=left;spacingLeft=30;fontColor=#248814;dashed=0;" vertex="1" parent="BO9AZAVn0g_Hce8t9gI5-25">
          <mxGeometry x="90" y="80" width="180" height="150" as="geometry" />
        </mxCell>
        <mxCell id="wtEGEeKgVB4r8HaXVltj-16" value="ALB" style="outlineConnect=0;dashed=0;verticalLabelPosition=bottom;verticalAlign=top;align=center;html=1;shape=mxgraph.aws3.application_load_balancer;fillColor=#F58534;gradientColor=none;" vertex="1" parent="wtEGEeKgVB4r8HaXVltj-15">
          <mxGeometry x="56" y="44" width="69" height="72" as="geometry" />
        </mxCell>
        <mxCell id="wtEGEeKgVB4r8HaXVltj-18" value="" style="endArrow=classic;html=1;rounded=0;entryX=0.5;entryY=0;entryDx=0;entryDy=0;entryPerimeter=0;" edge="1" parent="BO9AZAVn0g_Hce8t9gI5-25" target="wtEGEeKgVB4r8HaXVltj-13">
          <mxGeometry width="50" height="50" relative="1" as="geometry">
            <mxPoint x="179.48000000000008" y="220" as="sourcePoint" />
            <mxPoint x="180" y="300" as="targetPoint" />
          </mxGeometry>
        </mxCell>
        <mxCell id="BO9AZAVn0g_Hce8t9gI5-38" value="&lt;b&gt;&lt;font style=&quot;font-size: 14px;&quot;&gt;Standby&lt;/font&gt;&lt;/b&gt;" style="text;html=1;align=center;verticalAlign=middle;whiteSpace=wrap;rounded=0;" parent="BO9AZAVn0g_Hce8t9gI5-25" vertex="1">
          <mxGeometry x="220" y="10" width="60" height="30" as="geometry" />
        </mxCell>
        <mxCell id="wtEGEeKgVB4r8HaXVltj-22" value="DynamoDB" style="sketch=0;points=[[0,0,0],[0.25,0,0],[0.5,0,0],[0.75,0,0],[1,0,0],[0,1,0],[0.25,1,0],[0.5,1,0],[0.75,1,0],[1,1,0],[0,0.25,0],[0,0.5,0],[0,0.75,0],[1,0.25,0],[1,0.5,0],[1,0.75,0]];outlineConnect=0;fontColor=#232F3E;fillColor=#C925D1;strokeColor=#ffffff;dashed=0;verticalLabelPosition=bottom;verticalAlign=top;align=center;html=1;fontSize=12;fontStyle=0;aspect=fixed;shape=mxgraph.aws4.resourceIcon;resIcon=mxgraph.aws4.dynamodb;" vertex="1" parent="BO9AZAVn0g_Hce8t9gI5-25">
          <mxGeometry x="150" y="450" width="60.25" height="60.25" as="geometry" />
        </mxCell>
        <mxCell id="wtEGEeKgVB4r8HaXVltj-13" value="EC2" style="outlineConnect=0;dashed=0;verticalLabelPosition=bottom;verticalAlign=top;align=center;html=1;shape=mxgraph.aws3.ec2;fillColor=#F58534;gradientColor=none;" vertex="1" parent="BO9AZAVn0g_Hce8t9gI5-25">
          <mxGeometry x="152.75" y="310" width="55" height="71" as="geometry" />
        </mxCell>
        <mxCell id="BO9AZAVn0g_Hce8t9gI5-35" value="" style="endArrow=classic;html=1;rounded=0;" parent="1" edge="1" target="wtEGEeKgVB4r8HaXVltj-5">
          <mxGeometry width="50" height="50" relative="1" as="geometry">
            <mxPoint x="610" y="160" as="sourcePoint" />
            <mxPoint x="400" y="300" as="targetPoint" />
            <Array as="points">
              <mxPoint x="395" y="160" />
            </Array>
          </mxGeometry>
        </mxCell>
        <mxCell id="BO9AZAVn0g_Hce8t9gI5-3" value="us-gov-west-1" style="points=[[0,0],[0.25,0],[0.5,0],[0.75,0],[1,0],[1,0.25],[1,0.5],[1,0.75],[1,1],[0.75,1],[0.5,1],[0.25,1],[0,1],[0,0.75],[0,0.5],[0,0.25]];outlineConnect=0;gradientColor=none;html=1;whiteSpace=wrap;fontSize=12;fontStyle=0;container=1;pointerEvents=0;collapsible=0;recursiveResize=0;shape=mxgraph.aws4.group;grIcon=mxgraph.aws4.group_region;strokeColor=#00A4A6;fillColor=none;verticalAlign=top;align=left;spacingLeft=30;fontColor=#147EBA;dashed=1;" parent="1" vertex="1">
          <mxGeometry x="230" y="200" width="350" height="690" as="geometry" />
        </mxCell>
        <mxCell id="BO9AZAVn0g_Hce8t9gI5-6" value="VPC" style="sketch=0;outlineConnect=0;gradientColor=none;html=1;whiteSpace=wrap;fontSize=12;fontStyle=0;shape=mxgraph.aws4.group;grIcon=mxgraph.aws4.group_vpc;strokeColor=#879196;fillColor=none;verticalAlign=top;align=left;spacingLeft=30;fontColor=#879196;dashed=0;" parent="BO9AZAVn0g_Hce8t9gI5-3" vertex="1">
          <mxGeometry x="20" y="50" width="290" height="360" as="geometry" />
        </mxCell>
        <mxCell id="BO9AZAVn0g_Hce8t9gI5-17" value="AWS S3 Bucket" style="outlineConnect=0;dashed=0;verticalLabelPosition=bottom;verticalAlign=top;align=center;html=1;shape=mxgraph.aws3.s3;fillColor=#E05243;gradientColor=none;" parent="BO9AZAVn0g_Hce8t9gI5-3" vertex="1">
          <mxGeometry x="130" y="580" width="60" height="73" as="geometry" />
        </mxCell>
        <mxCell id="BO9AZAVn0g_Hce8t9gI5-20" value="Private subnet" style="points=[[0,0],[0.25,0],[0.5,0],[0.75,0],[1,0],[1,0.25],[1,0.5],[1,0.75],[1,1],[0.75,1],[0.5,1],[0.25,1],[0,1],[0,0.75],[0,0.5],[0,0.25]];outlineConnect=0;gradientColor=none;html=1;whiteSpace=wrap;fontSize=12;fontStyle=0;container=1;pointerEvents=0;collapsible=0;recursiveResize=0;shape=mxgraph.aws4.group;grIcon=mxgraph.aws4.group_security_group;grStroke=0;strokeColor=#00A4A6;fillColor=#E6F6F7;verticalAlign=top;align=left;spacingLeft=30;fontColor=#147EBA;dashed=0;" parent="BO9AZAVn0g_Hce8t9gI5-3" vertex="1">
          <mxGeometry x="80" y="260" width="180" height="140" as="geometry" />
        </mxCell>
        <mxCell id="BO9AZAVn0g_Hce8t9gI5-23" value="EC2" style="outlineConnect=0;dashed=0;verticalLabelPosition=bottom;verticalAlign=top;align=center;html=1;shape=mxgraph.aws3.ec2;fillColor=#F58534;gradientColor=none;" parent="BO9AZAVn0g_Hce8t9gI5-20" vertex="1">
          <mxGeometry x="57.5" y="40" width="55" height="71" as="geometry" />
        </mxCell>
        <mxCell id="wtEGEeKgVB4r8HaXVltj-27" value="" style="endArrow=none;dashed=1;html=1;rounded=0;" edge="1" parent="BO9AZAVn0g_Hce8t9gI5-20">
          <mxGeometry width="50" height="50" relative="1" as="geometry">
            <mxPoint x="30" y="290" as="sourcePoint" />
            <mxPoint x="30" y="170" as="targetPoint" />
          </mxGeometry>
        </mxCell>
        <mxCell id="I5FXzIUGxQxFdgfo1vXz-2" value="" style="endArrow=classic;html=1;rounded=0;" parent="BO9AZAVn0g_Hce8t9gI5-3" edge="1">
          <mxGeometry width="50" height="50" relative="1" as="geometry">
            <mxPoint x="165" y="390" as="sourcePoint" />
            <mxPoint x="165" y="450" as="targetPoint" />
          </mxGeometry>
        </mxCell>
        <mxCell id="wtEGEeKgVB4r8HaXVltj-4" value="Public subnet" style="points=[[0,0],[0.25,0],[0.5,0],[0.75,0],[1,0],[1,0.25],[1,0.5],[1,0.75],[1,1],[0.75,1],[0.5,1],[0.25,1],[0,1],[0,0.75],[0,0.5],[0,0.25]];outlineConnect=0;gradientColor=none;html=1;whiteSpace=wrap;fontSize=12;fontStyle=0;container=1;pointerEvents=0;collapsible=0;recursiveResize=0;shape=mxgraph.aws4.group;grIcon=mxgraph.aws4.group_security_group;grStroke=0;strokeColor=#7AA116;fillColor=#F2F6E8;verticalAlign=top;align=left;spacingLeft=30;fontColor=#248814;dashed=0;" vertex="1" parent="BO9AZAVn0g_Hce8t9gI5-3">
          <mxGeometry x="80" y="90" width="180" height="150" as="geometry" />
        </mxCell>
        <mxCell id="wtEGEeKgVB4r8HaXVltj-5" value="ALB" style="outlineConnect=0;dashed=0;verticalLabelPosition=bottom;verticalAlign=top;align=center;html=1;shape=mxgraph.aws3.application_load_balancer;fillColor=#F58534;gradientColor=none;" vertex="1" parent="wtEGEeKgVB4r8HaXVltj-4">
          <mxGeometry x="50.5" y="44" width="69" height="72" as="geometry" />
        </mxCell>
        <mxCell id="wtEGEeKgVB4r8HaXVltj-6" value="" style="endArrow=classic;html=1;rounded=0;entryX=0.5;entryY=0.02;entryDx=0;entryDy=0;entryPerimeter=0;" edge="1" parent="BO9AZAVn0g_Hce8t9gI5-3">
          <mxGeometry width="50" height="50" relative="1" as="geometry">
            <mxPoint x="164.17000000000002" y="230" as="sourcePoint" />
            <mxPoint x="164.17000000000002" y="301" as="targetPoint" />
          </mxGeometry>
        </mxCell>
        <mxCell id="wtEGEeKgVB4r8HaXVltj-20" value="DynamoDB" style="sketch=0;points=[[0,0,0],[0.25,0,0],[0.5,0,0],[0.75,0,0],[1,0,0],[0,1,0],[0.25,1,0],[0.5,1,0],[0.75,1,0],[1,1,0],[0,0.25,0],[0,0.5,0],[0,0.75,0],[1,0.25,0],[1,0.5,0],[1,0.75,0]];outlineConnect=0;fontColor=#232F3E;fillColor=#C925D1;strokeColor=#ffffff;dashed=0;verticalLabelPosition=bottom;verticalAlign=top;align=center;html=1;fontSize=12;fontStyle=0;aspect=fixed;shape=mxgraph.aws4.resourceIcon;resIcon=mxgraph.aws4.dynamodb;" vertex="1" parent="BO9AZAVn0g_Hce8t9gI5-3">
          <mxGeometry x="135" y="450" width="60" height="60" as="geometry" />
        </mxCell>
        <mxCell id="wtEGEeKgVB4r8HaXVltj-24" value="" style="endArrow=none;dashed=1;html=1;rounded=0;" edge="1" parent="BO9AZAVn0g_Hce8t9gI5-3">
          <mxGeometry width="50" height="50" relative="1" as="geometry">
            <mxPoint x="110" y="550.24" as="sourcePoint" />
            <mxPoint x="730" y="550" as="targetPoint" />
          </mxGeometry>
        </mxCell>
        <mxCell id="wtEGEeKgVB4r8HaXVltj-25" value="" style="endArrow=none;dashed=1;html=1;rounded=0;" edge="1" parent="BO9AZAVn0g_Hce8t9gI5-3">
          <mxGeometry width="50" height="50" relative="1" as="geometry">
            <mxPoint x="110" y="430" as="sourcePoint" />
            <mxPoint x="730" y="430" as="targetPoint" />
          </mxGeometry>
        </mxCell>
        <mxCell id="BO9AZAVn0g_Hce8t9gI5-36" value="&lt;b&gt;&lt;font style=&quot;font-size: 14px;&quot;&gt;Primary&lt;/font&gt;&lt;/b&gt;" style="text;html=1;align=center;verticalAlign=middle;whiteSpace=wrap;rounded=0;" parent="1" vertex="1">
          <mxGeometry x="440" y="210" width="60" height="30" as="geometry" />
        </mxCell>
        <mxCell id="BO9AZAVn0g_Hce8t9gI5-37" value="" style="endArrow=classic;html=1;rounded=0;entryX=0.5;entryY=0;entryDx=0;entryDy=0;entryPerimeter=0;exitX=0.954;exitY=0.413;exitDx=0;exitDy=0;exitPerimeter=0;" parent="1" source="BO9AZAVn0g_Hce8t9gI5-2" edge="1" target="wtEGEeKgVB4r8HaXVltj-16">
          <mxGeometry width="50" height="50" relative="1" as="geometry">
            <mxPoint x="670" y="160" as="sourcePoint" />
            <mxPoint x="895" y="280" as="targetPoint" />
            <Array as="points">
              <mxPoint x="890" y="160" />
            </Array>
          </mxGeometry>
        </mxCell>
        <mxCell id="BO9AZAVn0g_Hce8t9gI5-42" value="" style="endArrow=classic;startArrow=classic;html=1;rounded=0;entryX=0;entryY=0.5;entryDx=0;entryDy=0;entryPerimeter=0;exitX=1;exitY=0.5;exitDx=0;exitDy=0;exitPerimeter=0;" parent="1" edge="1" target="BO9AZAVn0g_Hce8t9gI5-27" source="BO9AZAVn0g_Hce8t9gI5-17">
          <mxGeometry width="50" height="50" relative="1" as="geometry">
            <mxPoint x="440" y="877" as="sourcePoint" />
            <mxPoint x="860" y="857" as="targetPoint" />
          </mxGeometry>
        </mxCell>
        <mxCell id="BO9AZAVn0g_Hce8t9gI5-44" value="User" style="sketch=0;outlineConnect=0;fontColor=#232F3E;gradientColor=none;fillColor=#232F3D;strokeColor=none;dashed=0;verticalLabelPosition=bottom;verticalAlign=top;align=center;html=1;fontSize=12;fontStyle=0;aspect=fixed;pointerEvents=1;shape=mxgraph.aws4.user;" parent="1" vertex="1">
          <mxGeometry x="612" width="48" height="48" as="geometry" />
        </mxCell>
        <mxCell id="BO9AZAVn0g_Hce8t9gI5-45" value="" style="endArrow=classic;html=1;rounded=0;entryX=0.5;entryY=0;entryDx=0;entryDy=0;entryPerimeter=0;" parent="1" edge="1">
          <mxGeometry width="50" height="50" relative="1" as="geometry">
            <mxPoint x="635.23" y="70" as="sourcePoint" />
            <mxPoint x="635.23" y="140.0000000000001" as="targetPoint" />
          </mxGeometry>
        </mxCell>
        <mxCell id="BO9AZAVn0g_Hce8t9gI5-46" value="&lt;b&gt;&lt;font style=&quot;font-size: 14px;&quot;&gt;cross-region replication&lt;/font&gt;&lt;/b&gt;" style="text;html=1;align=center;verticalAlign=middle;whiteSpace=wrap;rounded=0;" parent="1" vertex="1">
          <mxGeometry x="589" y="780" width="112" height="30" as="geometry" />
        </mxCell>
        <mxCell id="wtEGEeKgVB4r8HaXVltj-29" value="&lt;b&gt;&lt;font style=&quot;font-size: 14px;&quot;&gt;Global Table&lt;/font&gt;&lt;/b&gt;" style="text;html=1;align=center;verticalAlign=middle;whiteSpace=wrap;rounded=0;" vertex="1" parent="1">
          <mxGeometry x="589" y="650" width="112" height="30" as="geometry" />
        </mxCell>
        <mxCell id="wtEGEeKgVB4r8HaXVltj-30" value="&lt;b&gt;&lt;font style=&quot;font-size: 14px;&quot;&gt;Failover record&lt;/font&gt;&lt;/b&gt;" style="text;html=1;align=center;verticalAlign=middle;whiteSpace=wrap;rounded=0;" vertex="1" parent="1">
          <mxGeometry x="500" y="130" width="112" height="30" as="geometry" />
        </mxCell>
      </root>
    </mxGraphModel>
  </diagram>
</mxfile>
